HIERARCHY
ROOT Hips
{
	OFFSET 0.000000 0.000000 0.000000
	CHANNELS 6 Xposition Yposition Zposition Zrotation Yrotation Xrotation 
	JOINT LHipJoint
	{
		OFFSET 0.000000 0.000000 0.000000
		CHANNELS 3 Zrotation Yrotation Xrotation
		JOINT LeftUpLeg
		{
			OFFSET 1.363060 -1.794630 0.839290
			CHANNELS 3 Zrotation Yrotation Xrotation
			JOINT LeftLeg
			{
				OFFSET 2.448110 -6.726130 0.000000
				CHANNELS 3 Zrotation Yrotation Xrotation
				JOINT LeftFoot
				{
					OFFSET 2.562200 -7.039590 0.000000
					CHANNELS 3 Zrotation Yrotation Xrotation
					JOINT LeftToeBase
					{
						OFFSET 0.157640 -0.433110 2.322550
						CHANNELS 3 Zrotation Yrotation Xrotation
						End Site
						{
							OFFSET 0.000000 0.000000 0.000000
						}
					}
				}
			}
		}
	}
	JOINT RHipJoint
	{
		OFFSET 0.000000 0.000000 0.000000
		CHANNELS 3 Zrotation Yrotation Xrotation
		JOINT RightUpLeg
		{
			OFFSET -1.305520 -1.794630 0.839290
			CHANNELS 3 Zrotation Yrotation Xrotation
			JOINT RightLeg
			{
				OFFSET -2.542530 -6.985550 0.000000
				CHANNELS 3 Zrotation Yrotation Xrotation
				JOINT RightFoot
				{
					OFFSET -2.568260 -7.056230 0.000000
					CHANNELS 3 Zrotation Yrotation Xrotation
					JOINT RightToeBase
					{
						OFFSET -0.164730 -0.452590 2.363150
						CHANNELS 3 Zrotation Yrotation Xrotation
						End Site
						{
							OFFSET 0.000000 0.000000 0.000000
						}
					}
				}
			}
		}
	}
	JOINT LowerBack
	{
		OFFSET 0.000000 0.000000 0.000000
		CHANNELS 3 Zrotation Yrotation Xrotation
		JOINT Spine
		{
			OFFSET 0.028270 2.035590 -0.193380
			CHANNELS 3 Zrotation Yrotation Xrotation
			JOINT Spine1
			{
				OFFSET 0.056720 2.048850 -0.042750
				CHANNELS 3 Zrotation Yrotation Xrotation
				JOINT Neck
				{
					OFFSET 0.000000 0.000000 0.000000
					CHANNELS 3 Zrotation Yrotation Xrotation
					JOINT Neck1
					{
						OFFSET -0.054170 1.746240 0.172020
						CHANNELS 3 Zrotation Yrotation Xrotation
						JOINT Head
						{
							OFFSET 0.104070 1.761360 -0.123970
							CHANNELS 3 Zrotation Yrotation Xrotation
							End Site
							{
								OFFSET 0.000000 0.000000 0.000000
							}
						}
					}
				}
				JOINT LeftShoulder
				{
					OFFSET 0.000000 0.000000 0.000000
					CHANNELS 3 Zrotation Yrotation Xrotation
					JOINT LeftArm
					{
						OFFSET 3.362410 1.200890 -0.311210
						CHANNELS 3 Zrotation Yrotation Xrotation
						JOINT LeftForeArm
						{
							OFFSET 4.983000 -0.000000 -0.000000
							CHANNELS 3 Zrotation Yrotation Xrotation
							JOINT LeftHand
							{
								OFFSET 3.483560 -0.000000 -0.000000
								CHANNELS 3 Zrotation Yrotation Xrotation
								JOINT LeftFingerBase
								{
									OFFSET 0.000000 0.000000 0.000000
									CHANNELS 3 Zrotation Yrotation Xrotation
									JOINT LeftHandIndex1
									{
										OFFSET 0.715260 -0.000000 -0.000000
										CHANNELS 3 Zrotation Yrotation Xrotation
										End Site
										{
											OFFSET 0.000000 0.000000 0.000000
										}
									}
								}
								JOINT LThumb
								{
									OFFSET 0.000000 0.000000 0.000000
									CHANNELS 3 Zrotation Yrotation Xrotation
									End Site
									{
										OFFSET 0.000000 0.000000 0.000000
									}
								}
							}
						}
					}
				}
				JOINT RightShoulder
				{
					OFFSET 0.000000 0.000000 0.000000
					CHANNELS 3 Zrotation Yrotation Xrotation
					JOINT RightArm
					{
						OFFSET -3.136600 1.374050 -0.404650
						CHANNELS 3 Zrotation Yrotation Xrotation
						JOINT RightForeArm
						{
							OFFSET -5.241900 -0.000000 -0.000000
							CHANNELS 3 Zrotation Yrotation Xrotation
							JOINT RightHand
							{
								OFFSET -3.444170 -0.000000 -0.000000
								CHANNELS 3 Zrotation Yrotation Xrotation
								JOINT RightFingerBase
								{
									OFFSET 0.000000 0.000000 0.000000
									CHANNELS 3 Zrotation Yrotation Xrotation
									JOINT RightHandIndex1
									{
										OFFSET -0.622530 -0.000000 -0.000000
										CHANNELS 3 Zrotation Yrotation Xrotation
										End Site
										{
											OFFSET 0.000000 0.000000 0.000000
										}
									}
								}
								JOINT RThumb
								{
									OFFSET 0.000000 0.000000 0.000000
									CHANNELS 3 Zrotation Yrotation Xrotation
									End Site
									{
										OFFSET 0.000000 0.000000 0.000000
									}
								}
							}
						}
					}
				}
			}
		}
	}
}
MOTION
Frames: 11
Frame Time: 0.008333
0.700874 17.685135 4.312473 5.001067 3.350250 2.418841 0.098881 2.323252 2.246197 -27.046668 -0.606446 0.868921 0.025758 5.592712 19.061186 1.343953 -3.731763 -2.912850 0.024331 0.991205 2.724642 -1.875296 -2.046553 0.464958 11.853754 14.379920 -27.874012 -0.225313 -6.289037 16.623361 1.878014 -12.250573 9.954167 -0.008812 0.459790 -1.263962 -5.017955 -1.483585 4.397000 0.720933 -2.477870 -1.732067 5.136836 -1.051429 -2.316605 -7.985741 -2.450582 -12.984566 4.023471 -2.134300 13.406111 3.129110 -1.443953 9.601921 -7.509028 2.585051 -2.226569 -78.978043 -6.491759 19.366366 11.916168 -22.125145 -2.965223 -1.246435 -3.396462 6.867778 16.637311 23.840271 8.254653 -7.125000 0.000000 0.000000 -14.304854 57.913259 -4.595095 5.884420 -2.228577 -2.333412 82.761555 -5.432056 9.690857 -13.793977 21.256479 -3.528111 0.900937 -0.934772 7.149827 -12.520339 15.057677 -3.755392 7.125000 0.000000 0.000000 9.493045 -13.878347 7.038184
0.692938 17.676932 4.416991 5.030356 3.463908 2.528540 0.092056 2.348010 2.272257 -27.016546 -0.570270 1.304831 -0.013410 5.476281 18.751516 1.284943 -3.480920 -2.955087 0.029775 1.112577 3.058556 -1.853262 -2.055349 0.459928 11.565261 14.609444 -27.580727 -0.041249 -5.731944 15.091159 1.941489 -12.115833 8.856465 -0.006859 -0.195152 0.536294 -5.050009 -1.559509 4.364054 0.737684 -2.580429 -1.754937 5.207854 -1.102456 -2.340187 -7.959006 -2.459581 -13.062546 3.937610 -2.140574 13.422459 3.079649 -1.452741 9.627094 -7.492640 2.573605 -2.236659 -78.970378 -6.608736 19.422903 12.065501 -22.353593 -3.039608 -1.193984 -3.443991 6.508855 16.401344 24.269663 8.249753 -7.125000 0.000000 0.000000 -14.855430 58.312755 -4.908051 5.904765 -2.232941 -2.333457 82.734397 -5.487113 9.554574 -13.639027 21.019925 -3.444735 0.918483 -0.914619 7.039051 -12.618351 14.788491 -3.719660 7.125000 0.000000 0.000000 9.417443 -14.161254 6.923523
0.684918 17.669514 4.519968 5.128604 3.615976 2.670141 0.087239 2.368480 2.293379 -27.053225 -0.554135 1.715469 -0.053485 5.358750 18.436888 1.216832 -3.198239 -2.975951 0.032273 1.158910 3.186116 -1.834179 -2.061401 0.454409 11.213917 14.761017 -27.358529 0.120314 -5.211766 13.663203 1.981004 -11.940179 7.867684 -0.012840 -0.730901 2.008649 -5.152109 -1.649481 4.311095 0.749470 -2.704108 -1.771725 5.297749 -1.166431 -2.325178 -7.958300 -2.481556 -13.169426 3.856977 -2.155405 13.412385 3.036338 -1.465682 9.645860 -7.486427 2.559236 -2.238731 -78.974050 -6.822509 19.375633 12.135585 -22.454460 -3.078203 -1.178277 -3.437983 6.428716 16.302684 24.218711 8.177976 -7.125000 0.000000 0.000000 -14.939277 58.229664 -4.910768 5.928611 -2.233651 -2.331244 82.695916 -5.474075 9.398969 -13.476290 20.769225 -3.357275 0.934810 -0.892580 6.929201 -12.703267 14.495331 -3.673626 7.125000 0.000000 0.000000 9.351562 -14.471229 6.810877
0.679810 17.662151 4.623592 5.355308 3.874315 2.817155 0.090279 2.383122 2.303763 -27.221546 -0.570731 2.152051 -0.090972 5.243657 18.133306 1.166933 -3.018718 -2.903455 0.032662 1.165915 3.205442 -1.817708 -2.062910 0.444497 10.810988 14.595010 -27.230683 0.244321 -4.770134 12.453187 1.941530 -11.596455 7.300722 -0.014656 -0.781681 2.148408 -5.337462 -1.764322 4.225547 0.741825 -2.857974 -1.745599 5.353889 -1.257353 -2.152014 -7.950740 -2.527605 -13.406985 3.792547 -2.195495 13.298061 2.996453 -1.482155 9.641904 -7.496061 2.538738 -2.220881 -78.999893 -7.256868 19.243329 12.064464 -22.328961 -3.047450 -1.247602 -3.346085 6.855366 16.625192 23.392486 8.115846 -7.125000 0.000000 0.000000 -14.017708 57.423469 -4.329615 5.949678 -2.230149 -2.322673 82.688767 -5.298106 9.175445 -13.371635 20.606421 -3.302552 0.934119 -0.881177 6.958826 -12.674802 14.314534 -3.620316 7.125000 0.000000 0.000000 9.371666 -14.667541 6.786168
0.673674 17.654702 4.726831 5.494374 4.045391 2.896503 0.094312 2.403250 2.319225 -27.309559 -0.621237 2.628328 -0.125935 5.134415 17.848272 1.110240 -2.822515 -2.761858 0.028490 1.084300 2.980836 -1.804981 -2.068838 0.438456 10.592906 14.425172 -27.084405 0.338081 -4.412130 11.483127 1.897671 -11.293042 6.916076 -0.010154 -0.316436 0.869841 -5.443168 -1.841959 4.205152 0.736844 -2.962548 -1.734070 5.377569 -1.316459 -2.088218 -7.909462 -2.531612 -13.455660 3.740572 -2.201340 13.153947 2.962216 -1.480762 9.581379 -7.501175 2.527985 -2.207644 -78.983938 -7.491834 19.266208 11.993183 -22.213882 -3.018676 -1.336404 -3.236157 7.277568 17.131297 22.392474 8.080076 -7.125000 0.000000 0.000000 -12.830700 56.461291 -3.667793 5.955432 -2.232125 -2.320612 82.725610 -5.291154 9.018142 -13.362300 20.591986 -3.298878 0.925475 -0.859984 6.974046 -12.579283 14.113950 -3.540354 7.125000 0.000000 0.000000 9.443863 -14.897869 6.792505
0.666789 17.646685 4.830098 5.569469 4.157675 2.931784 0.098999 2.427077 2.338338 -27.337312 -0.689151 3.125072 -0.158288 5.031521 17.581866 1.050501 -2.614391 -2.610291 0.021021 0.911346 2.505011 -1.795210 -2.077604 0.435142 10.499739 14.261498 -26.933048 0.411298 -4.114543 10.684902 1.855679 -11.029050 6.626144 -0.006093 0.427320 -1.174432 -5.490363 -1.894852 4.227612 0.734418 -3.034304 -1.734038 5.381236 -1.353981 -2.102187 -7.851304 -2.511232 -13.376850 3.698607 -2.188191 12.998064 2.933149 -1.469756 9.487324 -7.502531 2.524121 -2.198920 -78.946861 -7.587831 19.383019 11.938567 -22.131326 -2.999405 -1.428625 -3.123403 7.669032 17.698085 21.362135 8.056294 -7.125000 0.000000 0.000000 -11.585573 55.473741 -3.008592 5.952455 -2.237609 -2.322100 82.786404 -5.393931 8.885599 -13.398125 20.649039 -3.319631 0.912948 -0.836609 7.002958 -12.455962 13.923520 -3.454014 7.125000 0.000000 0.000000 9.537754 -15.122191 6.815836
0.658297 17.634146 4.935446 5.507569 4.176143 2.907549 0.104617 2.456828 2.364913 -27.225274 -0.746281 3.609949 -0.180023 4.955811 17.388672 0.996762 -2.382400 -2.702271 0.006688 0.368328 1.012277 -1.793241 -2.089918 0.437024 10.608544 14.169683 -26.825623 0.450578 -3.942236 10.232970 1.850859 -10.914903 6.287915 -0.036055 1.125015 -3.093838 -5.409813 -1.910556 4.311064 0.741459 -3.056484 -1.764145 5.366143 -1.356017 -2.269148 -7.807599 -2.479874 -13.093023 3.684092 -2.173662 12.882274 2.921994 -1.460612 9.372274 -7.492824 2.533548 -2.207360 -78.925997 -7.429256 19.574379 12.029485 -22.281518 -3.053225 -1.457479 -3.072251 7.814719 17.914801 20.898702 8.010702 -7.125000 0.000000 0.000000 -11.103841 55.011076 -2.757609 5.946795 -2.247393 -2.323314 82.845071 -5.642389 8.651744 -13.370824 20.618221 -3.308680 0.904693 -0.841034 7.219648 -12.411503 13.915851 -3.439616 7.125000 0.000000 0.000000 9.571219 -15.131789 6.838470
0.648726 17.618852 5.039790 5.499825 4.176750 2.879586 0.113188 2.483269 2.388971 -27.165547 -0.764648 4.076195 -0.195200 4.893740 17.235410 0.950043 -2.170127 -2.859770 0.006479 -0.224197 -0.616308 -1.796768 -2.098622 0.437991 10.656359 14.115857 -26.797083 0.470581 -3.856169 10.004501 1.857949 -10.868087 5.989592 -0.065362 1.628506 -4.480542 -5.397342 -1.919332 4.445419 0.746114 -3.075420 -1.792770 5.392858 -1.357197 -2.439594 -7.824503 -2.468283 -12.920017 3.694481 -2.165089 12.832690 2.931005 -1.457364 9.317687 -7.486806 2.534922 -2.218508 -78.940885 -7.345467 19.726560 12.145988 -22.460581 -3.115253 -1.459269 -3.061762 7.899450 17.942652 20.837565 8.001766 -7.125000 0.000000 0.000000 -11.044149 54.946863 -2.723434 5.952382 -2.246785 -2.320430 82.843489 -5.776897 8.434948 -13.257545 20.449351 -3.251486 0.905535 -0.854483 7.460792 -12.452825 13.920368 -3.455177 7.125000 0.000000 0.000000 9.539379 -15.114705 6.818587
0.638286 17.601537 5.143299 5.531045 4.163220 2.849531 0.124030 2.507120 2.410965 -27.143113 -0.755540 4.527318 -0.205280 4.842526 17.113760 0.909007 -1.974460 -3.065642 0.017369 -0.848510 -2.332111 -1.804734 -2.104419 0.438100 10.661257 14.090827 -26.833194 0.474972 -3.840367 9.958287 1.873565 -10.872931 5.730990 -0.093626 1.973674 -5.432858 -5.434833 -1.922468 4.617348 0.749184 -3.091088 -1.819188 5.451304 -1.357690 -2.608217 -7.887538 -2.472048 -12.839387 3.724766 -2.161008 12.834251 2.955751 -1.458410 9.311204 -7.483713 2.529668 -2.231533 -78.982150 -7.325391 19.849633 12.281040 -22.659875 -3.182808 -1.440072 -3.083560 7.934431 17.824783 21.095543 8.023969 -7.125000 0.000000 0.000000 -11.314693 55.199642 -2.860507 5.967165 -2.237919 -2.314089 82.795392 -5.816014 8.229673 -13.076418 20.171355 -3.157872 0.913190 -0.874872 7.722036 -12.558552 13.932600 -3.492941 7.125000 0.000000 0.000000 9.458488 -15.078888 6.766499
0.626610 17.590922 5.244335 5.391775 4.140769 2.861167 0.133066 2.530835 2.428111 -26.938608 -0.889458 4.949987 -0.216866 4.801250 17.012475 0.877914 -1.839379 -3.127739 0.031247 -1.122840 -3.087006 -1.819871 -2.105857 0.430927 10.906962 14.020430 -27.021017 0.451719 -3.969429 10.296914 1.849555 -10.828678 5.904501 -0.094988 1.987812 -5.472030 -5.307680 -1.914162 4.677193 0.766461 -3.069635 -1.792493 5.461698 -1.357240 -2.546388 -7.887673 -2.471070 -13.050431 3.776847 -2.148728 12.805291 2.979033 -1.443429 9.347587 -7.482729 2.507484 -2.232428 -78.944053 -7.571804 20.049422 12.342652 -22.740846 -3.205401 -1.429351 -3.130926 7.862594 17.803057 21.590461 8.172225 -7.125000 0.000000 0.000000 -11.603681 55.733970 -3.088208 6.002527 -2.222186 -2.294902 82.776509 -5.534509 7.932542 -12.862585 19.831366 -3.050219 0.905715 -0.889570 8.033329 -12.530468 13.853228 -3.469204 7.125000 0.000000 0.000000 9.478528 -15.150616 6.766434
0.616170 17.582018 5.348096 5.308546 4.116090 2.871526 0.145834 2.552099 2.442234 -26.806179 -1.018043 5.398351 -0.227383 4.758286 16.911747 0.877614 -1.846304 -3.117868 0.035713 -1.217372 -3.347123 -1.838074 -2.104643 0.423223 11.141045 13.835286 -27.267799 0.415683 -4.157701 10.795277 1.796092 -10.689223 6.174037 -0.082665 1.840079 -5.064384 -5.229594 -1.915212 4.709314 0.777448 -3.060991 -1.755974 5.472097 -1.366982 -2.433279 -7.897514 -2.457230 -13.332344 3.857480 -2.114429 12.805710 3.019778 -1.416187 9.410752 -7.481976 2.487236 -2.230885 -78.908396 -7.860137 20.193329 12.387370 -22.795979 -3.220525 -1.423908 -3.166365 7.842773 17.793462 21.978073 8.291685 -7.125000 0.000000 0.000000 -11.824087 56.153088 -3.267329 6.028916 -2.208897 -2.279856 82.783290 -5.286445 7.646793 -12.708296 19.587579 -2.973243 0.896045 -0.916352 8.319285 -12.493662 13.935345 -3.483149 7.125000 0.000000 0.000000 9.504419 -15.047500 6.806837
